<svg width="120.307" height="12.939" viewBox="0 0 182.307 22.939" xmlns="http://www.w3.org/2000/svg"><g id="svgGroup" stroke-linecap="round" fill-rule="evenodd" font-size="9pt" stroke="#000000" stroke-width="0.25mm" fill="#000000" style="stroke:#000000;stroke-width:0.25mm;fill:#000000"><path d="M 58.947 15.304 L 52.451 15.304 Q 51.619 15.304 51.619 14.152 Q 51.619 13.064 52.451 13.064 L 60.675 13.064 Q 61.603 13.064 62.003 13.448 Q 62.403 13.832 62.403 14.472 Q 62.403 15.144 61.955 16.024 Q 61.507 16.904 60.723 17.848 Q 59.939 18.792 58.835 19.704 Q 57.731 20.616 56.419 21.336 Q 55.107 22.056 53.619 22.488 Q 52.131 22.92 50.563 22.92 Q 48.035 22.92 46.147 22.392 Q 44.259 21.864 42.995 20.904 Q 41.731 19.944 41.107 18.632 Q 40.483 17.32 40.483 15.752 Q 40.483 14.088 41.027 12.456 Q 41.571 10.824 42.563 9.336 Q 43.555 7.848 44.963 6.6 Q 46.371 5.352 48.083 4.424 Q 49.795 3.496 51.795 2.968 Q 53.795 2.44 55.939 2.44 Q 58.851 2.44 60.707 3.208 Q 62.563 3.976 63.427 5.096 Q 63.843 5.608 63.843 6.312 Q 63.843 6.984 63.299 7.464 Q 62.755 7.944 61.891 7.944 Q 61.443 7.944 60.995 7.704 Q 60.547 7.464 60.195 7.048 Q 59.139 5.768 57.747 5.208 Q 56.355 4.648 54.499 4.648 Q 52.323 4.648 50.451 5.464 Q 48.579 6.28 47.203 7.672 Q 45.827 9.064 45.027 10.872 Q 44.227 12.68 44.227 14.664 Q 44.227 15.944 44.723 17.032 Q 45.219 18.12 46.099 18.936 Q 46.979 19.752 48.211 20.216 Q 49.443 20.68 50.915 20.68 Q 52.835 20.68 54.403 20.008 Q 55.971 19.336 57.075 18.456 Q 58.179 17.576 58.771 16.744 Q 59.363 15.912 59.363 15.592 Q 59.363 15.304 58.947 15.304 Z M 13.091 14.664 L 6.819 12.808 Q 4.451 12.104 3.491 10.984 Q 2.531 9.864 2.531 8.104 Q 2.531 6.92 3.139 5.88 Q 3.747 4.84 4.915 4.072 Q 6.083 3.304 7.811 2.872 Q 9.539 2.44 11.811 2.44 Q 13.251 2.44 14.755 2.712 Q 16.259 2.984 17.507 3.496 Q 18.755 4.008 19.539 4.696 Q 20.323 5.384 20.323 6.216 Q 20.323 6.856 19.795 7.368 Q 19.267 7.88 18.275 7.88 Q 17.635 7.88 17.155 7.656 Q 16.675 7.432 16.419 7.112 Q 15.299 5.768 13.923 5.16 Q 12.547 4.552 10.723 4.552 Q 8.515 4.552 7.315 5.496 Q 6.115 6.44 6.115 7.752 Q 6.115 8.68 6.723 9.272 Q 7.331 9.864 9.027 10.344 L 15.843 12.296 Q 16.995 12.648 17.779 13.048 Q 18.563 13.448 19.043 13.944 Q 19.523 14.44 19.715 15.064 Q 19.907 15.688 19.907 16.456 Q 19.907 17.512 19.155 18.648 Q 18.403 19.784 17.059 20.728 Q 15.715 21.672 13.827 22.296 Q 11.939 22.92 9.667 22.92 Q 7.459 22.92 5.667 22.472 Q 3.875 22.024 2.627 21.24 Q 1.379 20.456 0.691 19.368 Q 0.003 18.28 0.003 17.032 Q 0.003 16.104 0.499 15.56 Q 0.995 15.016 1.795 15.016 Q 2.595 15.016 3.043 15.432 Q 3.491 15.848 3.875 17.064 Q 4.099 17.832 4.659 18.504 Q 5.219 19.176 6.003 19.672 Q 6.787 20.168 7.763 20.472 Q 8.739 20.776 9.827 20.776 Q 11.395 20.776 12.595 20.472 Q 13.795 20.168 14.611 19.656 Q 15.427 19.144 15.843 18.488 Q 16.259 17.832 16.259 17.128 Q 16.259 16.68 16.147 16.344 Q 16.035 16.008 15.699 15.736 Q 15.363 15.464 14.739 15.208 Q 14.115 14.952 13.091 14.664 Z M 37.987 2.536 Q 38.339 2.536 38.691 2.648 Q 39.043 2.76 39.315 2.968 Q 39.587 3.176 39.731 3.512 Q 39.875 3.848 39.779 4.264 Q 38.883 8.168 38.083 11.064 Q 37.283 13.96 36.515 16.024 Q 35.747 18.088 34.995 19.416 Q 34.243 20.744 33.427 21.496 Q 32.611 22.248 31.715 22.536 Q 30.819 22.824 29.795 22.824 A 4.613 4.613 0 0 1 26.015 19.977 A 15.212 15.212 0 0 1 25.187 18.296 A 41.671 41.671 0 0 1 23.237 12.099 A 110.712 110.712 0 0 1 21.667 4.328 A 1.875 1.875 0 0 1 21.647 4.063 A 1.304 1.304 0 0 1 21.747 3.544 Q 21.891 3.208 22.163 2.968 Q 22.435 2.728 22.787 2.616 Q 23.139 2.504 23.523 2.504 Q 24.067 2.504 24.531 2.76 Q 24.995 3.016 25.123 3.56 Q 26.083 7.528 26.803 10.344 Q 27.523 13.16 28.051 15.064 Q 28.579 16.968 28.963 18.072 Q 29.347 19.176 29.651 19.752 Q 29.955 20.328 30.179 20.488 Q 30.403 20.648 30.659 20.648 Q 31.299 20.648 31.779 19.848 Q 32.259 19.048 32.883 17.08 Q 33.507 15.112 34.403 11.784 Q 35.299 8.456 36.803 3.4 Q 36.963 2.92 37.267 2.728 Q 37.571 2.536 37.987 2.536 Z M 110.883 21.512 L 110.883 18.664 Q 109.571 20.808 107.699 21.864 Q 105.827 22.92 103.459 22.92 Q 100.547 22.92 99.091 21.72 Q 97.635 20.52 97.635 18.696 Q 97.635 17.736 97.987 16.6 Q 98.339 15.464 98.963 14.312 Q 99.587 13.16 100.483 12.04 Q 101.379 10.92 102.435 9.992 Q 102.787 9.64 103.059 9.544 Q 103.331 9.448 103.651 9.448 Q 104.067 9.448 104.371 9.752 Q 104.675 10.056 104.675 10.376 Q 104.675 10.536 104.611 10.712 Q 104.547 10.888 104.291 11.144 Q 103.523 11.976 102.931 12.856 Q 102.339 13.736 101.939 14.616 Q 101.539 15.496 101.315 16.296 Q 101.091 17.096 101.091 17.736 Q 101.091 19.4 101.939 20.216 Q 102.787 21.032 104.323 21.032 Q 105.571 21.032 106.739 20.488 Q 107.907 19.944 108.787 18.984 Q 109.667 18.024 110.211 16.712 Q 110.755 15.4 110.755 13.832 L 110.755 11.016 Q 110.755 10.472 111.123 10.104 Q 111.491 9.736 112.355 9.736 Q 113.187 9.736 113.555 10.104 Q 113.923 10.472 113.923 11.016 L 113.923 21.512 Q 113.923 22.056 113.571 22.424 Q 113.219 22.792 112.419 22.792 Q 111.587 22.792 111.235 22.424 Q 110.883 22.056 110.883 21.512 Z M 76.323 19.528 L 76.323 7.496 Q 76.323 6.6 76.451 5.944 Q 76.579 5.288 76.899 4.808 Q 77.219 4.328 77.795 3.992 Q 78.371 3.656 79.267 3.336 Q 80.387 2.92 81.971 2.696 Q 83.555 2.472 85.411 2.472 Q 87.331 2.472 88.675 2.808 Q 90.019 3.144 90.883 3.688 Q 91.747 4.232 92.131 4.936 Q 92.515 5.64 92.515 6.408 Q 92.515 7.144 92.291 7.88 Q 92.067 8.616 91.587 9.32 Q 91.107 10.024 90.387 10.6 Q 89.667 11.176 88.707 11.56 A 9.962 9.962 0 0 1 93.098 12.549 A 3.81 3.81 0 0 1 93.331 12.696 Q 94.755 13.672 94.755 15.592 Q 94.755 17.192 93.955 18.52 Q 93.155 19.848 91.587 20.84 Q 90.019 21.832 87.667 22.376 Q 85.315 22.92 82.243 22.92 Q 80.547 22.92 79.411 22.744 Q 78.275 22.568 77.587 22.168 Q 76.899 21.768 76.611 21.112 Q 76.323 20.456 76.323 19.528 Z M 161.699 16.872 L 153.731 18.216 Q 153.731 19.4 154.387 20.088 Q 155.043 20.776 156.803 20.776 Q 158.403 20.776 159.763 20.392 Q 161.123 20.008 162.371 19.4 Q 162.947 19.112 163.267 19.112 Q 164.003 19.112 164.003 20.008 Q 164.003 20.552 163.331 20.904 Q 159.619 22.92 155.875 22.92 Q 154.371 22.92 153.299 22.6 Q 152.227 22.28 151.555 21.72 Q 150.883 21.16 150.563 20.392 Q 150.243 19.624 150.243 18.728 Q 150.243 17.064 151.139 15.4 Q 152.035 13.736 153.555 12.424 Q 155.075 11.112 157.075 10.28 Q 159.075 9.448 161.315 9.448 Q 164.035 9.448 165.299 10.376 Q 166.563 11.304 166.563 12.648 Q 166.563 14.216 165.459 15.32 Q 164.355 16.424 161.699 16.872 Z M 146.723 1.288 L 146.723 17.736 Q 146.723 18.184 146.787 18.456 Q 146.851 18.728 146.851 18.92 Q 146.851 19.176 146.643 19.416 Q 146.435 19.656 145.795 20.136 Q 144.995 20.744 144.035 21.256 Q 143.075 21.768 142.083 22.136 Q 141.091 22.504 140.115 22.712 Q 139.139 22.92 138.307 22.92 Q 135.555 22.92 134.211 21.752 Q 132.867 20.584 132.867 18.568 Q 132.867 16.808 133.683 15.16 Q 134.499 13.512 135.811 12.248 Q 137.123 10.984 138.771 10.216 Q 140.419 9.448 142.051 9.448 Q 142.499 9.448 142.899 9.464 Q 143.299 9.48 143.555 9.512 L 143.555 1.288 Q 143.555 0.744 143.923 0.376 Q 144.291 0.008 145.123 0.008 Q 145.987 0.008 146.355 0.376 Q 146.723 0.744 146.723 1.288 Z M 172.483 11.016 L 172.483 14.6 Q 173.411 11.912 174.995 10.68 Q 176.579 9.448 178.339 9.448 Q 180.163 9.448 181.235 10.232 Q 182.307 11.016 182.307 11.976 Q 182.307 12.648 181.859 13.128 Q 181.411 13.608 180.643 13.608 Q 179.555 13.608 178.947 12.68 Q 178.595 12.136 178.195 11.912 Q 177.795 11.688 177.251 11.688 Q 176.515 11.688 175.699 12.424 Q 174.883 13.16 174.195 14.328 Q 173.507 15.496 173.059 16.984 Q 172.611 18.472 172.611 19.944 L 172.611 21.576 Q 172.611 22.12 172.243 22.488 Q 171.875 22.856 171.011 22.856 Q 170.179 22.856 169.811 22.488 Q 169.443 22.12 169.443 21.576 L 169.443 11.016 Q 169.443 10.472 169.795 10.104 Q 170.147 9.736 170.947 9.736 Q 171.779 9.736 172.131 10.104 Q 172.483 10.472 172.483 11.016 Z M 129.347 1.288 L 129.347 21.512 Q 129.347 22.056 128.963 22.424 Q 128.579 22.792 127.715 22.792 Q 126.883 22.792 126.499 22.424 Q 126.115 22.056 126.115 21.512 L 126.115 1.288 Q 126.115 0.744 126.499 0.376 Q 126.883 0.008 127.715 0.008 Q 128.579 0.008 128.963 0.376 Q 129.347 0.744 129.347 1.288 Z M 79.427 13.128 L 79.427 18.6 Q 79.427 19.304 79.555 19.752 Q 79.683 20.2 80.147 20.44 Q 80.611 20.68 81.475 20.76 Q 82.339 20.84 83.843 20.84 Q 85.859 20.84 87.283 20.552 Q 88.707 20.264 89.587 19.72 Q 90.467 19.176 90.867 18.344 Q 91.267 17.512 91.267 16.424 Q 91.267 15.624 90.995 15.016 Q 90.723 14.408 90.067 13.992 Q 89.411 13.576 88.307 13.352 Q 87.203 13.128 85.539 13.128 L 79.427 13.128 Z M 121.635 10.856 L 121.635 21.512 Q 121.635 22.056 121.251 22.424 Q 120.867 22.792 120.003 22.792 Q 119.171 22.792 118.787 22.424 Q 118.403 22.056 118.403 21.512 L 118.403 10.856 Q 118.403 10.312 118.787 9.944 Q 119.171 9.576 120.003 9.576 Q 120.867 9.576 121.251 9.944 Q 121.635 10.312 121.635 10.856 Z M 79.427 7.496 L 79.427 11.304 L 84.131 11.304 Q 86.371 11.304 87.715 10.296 Q 89.059 9.288 89.059 7.56 Q 89.059 5.928 87.971 5.112 Q 86.883 4.296 84.419 4.296 Q 83.843 4.296 83.075 4.36 Q 82.307 4.424 81.859 4.52 Q 81.027 4.712 80.547 4.904 Q 80.067 5.096 79.827 5.4 Q 79.587 5.704 79.507 6.2 Q 79.427 6.696 79.427 7.496 Z M 143.587 16.2 L 143.587 11.208 Q 143.235 11.144 142.915 11.112 Q 142.595 11.08 142.051 11.08 Q 140.899 11.08 139.843 11.576 Q 138.787 12.072 137.955 12.952 Q 137.123 13.832 136.627 15.016 Q 136.131 16.2 136.131 17.576 Q 136.131 19.048 136.931 19.896 Q 137.731 20.744 138.851 20.744 Q 139.875 20.744 141.027 20.392 Q 142.179 20.04 143.491 19.208 Q 143.555 18.536 143.571 17.816 Q 143.587 17.096 143.587 16.2 Z M 153.763 16.296 L 160.739 15.176 Q 162.339 14.92 162.835 14.44 Q 163.331 13.96 163.331 13.224 Q 163.331 12.456 162.563 11.864 Q 161.795 11.272 160.259 11.272 Q 159.139 11.272 158.051 11.688 Q 156.963 12.104 156.083 12.808 Q 155.203 13.512 154.579 14.424 Q 153.955 15.336 153.763 16.296 Z M 118.147 5.32 L 118.147 4.104 Q 118.147 3.56 118.595 3.16 Q 119.043 2.76 120.003 2.76 Q 120.931 2.76 121.395 3.16 Q 121.859 3.56 121.859 4.104 L 121.859 5.32 Q 121.859 5.864 121.395 6.264 Q 120.931 6.664 120.003 6.664 Q 119.043 6.664 118.595 6.264 Q 118.147 5.864 118.147 5.32 Z"/></g></svg>