<svg width="120.958" height="56.556" viewBox="0 0 120.958 56.556" xmlns="http://www.w3.org/2000/svg" class="animated-svg"><style>
        .animated-svg path {
          stroke-dasharray: 2400;
          stroke-dashoffset: 2400;
          fill: transparent;
          animation: drawSignature 6s linear infinite both;
          animation-play-state: running;
          stroke-width: 2px;
          stroke: #000000;
        }
        @keyframes drawSignature {
          0% { stroke-dashoffset: 2400; }
          10% { fill: transparent; }
          25%, 85% { stroke-dashoffset: 0; fill: #000000; }
          95%, to { stroke-dashoffset: 2400; fill: transparent; }
        }
      </style><g id="svgGroup" stroke-linecap="round" fill-rule="evenodd" font-size="9pt" stroke="#000000" stroke-width="0.25mm" fill="#000000" style="stroke:#000000;stroke-width:0.25mm;fill:#000000"><path d="M 60.158 6.256 L 60.208 6.256 A 0.413 0.413 0 0 1 60.583 6.456 Q 60.708 6.656 60.708 6.906 Q 60.708 7.306 60.358 7.306 Q 58.558 7.206 57.458 8.356 Q 56.358 9.506 55.308 11.356 Q 54.308 13.106 54.083 15.781 Q 53.858 18.456 53.858 21.206 L 53.858 23.556 Q 53.858 24.706 53.833 25.781 Q 53.808 26.856 53.708 27.756 Q 53.158 32.956 51.683 36.781 Q 50.208 40.606 47.408 42.856 Q 46.508 43.606 45.908 43.856 A 8.266 8.266 0 0 0 46.594 43.885 A 6.506 6.506 0 0 0 50.158 42.881 Q 52.008 41.706 53.408 39.731 Q 54.808 37.756 55.783 35.531 Q 56.758 33.306 57.458 31.456 Q 59.058 27.256 60.433 23.131 Q 61.808 19.006 63.608 15.231 Q 65.408 11.456 68.158 8.156 Q 70.908 4.856 75.208 2.306 Q 77.208 1.106 79.208 0.556 Q 81.208 0.006 83.058 0.006 Q 86.308 0.006 88.483 1.556 Q 90.658 3.106 90.658 5.656 Q 90.658 7.656 89.058 10.081 A 18.629 18.629 0 0 1 84.573 14.497 A 36.934 36.934 0 0 1 83.658 15.156 Q 83.358 15.406 83.008 15.406 Q 82.708 15.406 82.708 15.106 Q 82.708 14.806 83.008 14.606 A 23.197 23.197 0 0 0 88.022 10.566 A 10.718 10.718 0 0 0 88.633 9.806 Q 90.308 7.506 90.308 5.806 Q 90.308 4.106 88.933 3.106 Q 87.558 2.106 85.208 2.106 Q 83.558 2.106 81.533 2.706 Q 79.508 3.306 77.308 4.606 Q 75.408 5.756 73.233 7.781 Q 71.058 9.806 68.958 12.481 Q 66.858 15.156 65.108 18.306 Q 63.408 21.356 61.933 24.981 Q 60.458 28.606 59.208 31.856 Q 58.508 33.806 57.383 36.006 Q 56.258 38.206 54.683 40.156 Q 53.108 42.106 51.108 43.356 Q 49.108 44.606 46.608 44.606 Q 46.108 44.606 45.558 44.556 Q 45.008 44.506 44.458 44.356 Q 44.208 44.356 44.208 44.106 Q 44.058 44.006 44.158 43.956 L 44.208 43.956 Q 44.208 43.556 44.658 43.656 Q 46.458 42.356 47.533 40.206 Q 48.608 38.056 49.183 35.431 Q 49.758 32.806 50.058 30.031 Q 50.358 27.256 50.533 24.631 Q 50.708 22.006 50.958 19.856 Q 51.258 17.656 51.733 15.706 Q 52.208 13.756 53.008 12.356 Q 53.758 11.056 55.083 9.631 Q 56.408 8.206 57.958 7.406 L 57.658 7.406 Q 57.608 7.456 57.458 7.456 Q 57.408 7.456 57.358 7.431 Q 57.308 7.406 57.208 7.406 L 55.608 7.406 Q 53.808 7.856 51.808 9.781 Q 49.808 11.706 47.758 14.806 Q 45.708 17.906 43.633 21.781 Q 41.558 25.656 39.608 30.006 L 38.908 31.556 Q 40.658 33.256 41.583 35.556 Q 42.508 37.856 42.508 40.306 Q 42.508 43.156 41.208 45.781 Q 39.908 48.406 37.283 50.081 Q 34.658 51.756 30.558 51.756 Q 28.958 51.756 27.483 51.481 Q 26.008 51.206 24.708 50.706 Q 22.008 52.806 18.983 54.231 Q 15.958 55.656 12.558 56.206 Q 11.608 56.356 10.558 56.456 Q 9.508 56.556 8.508 56.556 Q 6.308 56.556 4.358 55.981 Q 2.408 55.406 1.208 54.056 Q 0.008 52.706 0.008 50.406 Q 0.008 49.606 0.158 48.806 Q 0.158 48.506 0.508 48.506 Q 0.808 48.506 0.808 48.756 Q 0.808 49.056 0.783 49.306 Q 0.758 49.556 0.758 49.856 Q 0.758 51.956 1.983 53.306 Q 3.208 54.656 5.158 55.306 Q 7.108 55.956 9.258 55.956 Q 11.658 55.956 13.908 55.256 Q 16.308 54.506 18.508 53.031 Q 20.708 51.556 22.658 49.606 Q 19.458 47.556 17.708 43.956 Q 15.958 40.356 15.958 36.106 Q 15.958 33.556 16.658 30.656 Q 17.708 26.756 20.033 22.981 Q 22.358 19.206 26.433 15.956 A 37.018 37.018 0 0 1 35.963 10.653 A 53.991 53.991 0 0 1 36.733 10.356 A 60.134 60.134 0 0 1 48.031 7.447 A 92.2 92.2 0 0 1 51.758 6.906 Q 52.908 6.756 54.533 6.631 Q 56.158 6.506 57.708 6.381 Q 59.258 6.256 60.158 6.256 Z M 64.408 42.706 Q 62.258 42.706 61.358 41.231 Q 60.458 39.756 60.458 37.856 Q 60.458 36.706 60.708 35.606 Q 60.958 34.506 61.308 33.556 Q 61.858 32.206 62.883 30.681 Q 63.908 29.156 65.358 28.056 Q 66.808 26.956 68.508 26.956 Q 69.908 26.956 70.458 27.731 Q 71.008 28.506 71.008 29.656 L 71.008 30.031 Q 71.008 30.206 70.958 30.456 Q 70.808 31.806 69.908 33.256 Q 69.008 34.706 67.658 35.681 Q 66.308 36.656 64.758 36.656 Q 63.858 36.656 63.158 36.156 Q 62.708 37.856 62.708 39.256 Q 62.708 40.406 63.133 41.156 Q 63.558 41.906 64.458 41.906 Q 65.508 41.906 66.983 40.981 Q 68.458 40.056 70.183 37.806 A 31.762 31.762 0 0 0 70.856 36.847 A 0.239 0.239 0 0 1 70.855 36.838 A 0.225 0.225 0 0 1 70.908 36.706 Q 71.608 35.506 72.183 34.506 Q 72.758 33.506 73.158 32.706 A 96.527 96.527 0 0 1 73.655 31.77 A 57.248 57.248 0 0 0 73.708 31.656 A 0.077 0.077 0 0 1 73.739 31.614 A 96.527 96.527 0 0 1 74.558 30.131 Q 75.358 28.706 76.308 28.206 Q 76.758 27.956 77.258 27.831 Q 77.758 27.706 78.158 27.706 Q 78.858 27.706 79.258 27.956 Q 79.758 28.256 79.908 28.931 Q 80.058 29.606 80.058 30.406 Q 80.058 31.206 79.958 32.006 Q 79.858 32.806 79.858 33.206 Q 80.608 32.556 81.483 31.706 Q 82.358 30.856 83.083 29.881 Q 83.808 28.906 84.058 28.056 Q 84.208 27.606 84.233 27.256 Q 84.258 26.906 84.558 26.456 Q 84.708 26.256 84.908 26.256 Q 85.158 26.256 85.283 26.531 A 0.75 0.75 0 0 1 85.352 26.844 A 0.825 0.825 0 0 1 85.308 27.106 Q 85.008 28.206 84.008 29.556 Q 83.008 30.906 81.833 32.131 Q 80.658 33.356 79.808 34.056 Q 79.708 34.656 79.708 36.506 Q 79.708 37.256 79.758 37.981 Q 79.808 38.706 79.858 39.206 Q 80.208 41.106 81.208 41.206 Q 82.008 41.206 83.208 39.756 A 36.968 36.968 0 0 0 84.556 37.854 A 0.274 0.274 0 0 1 84.547 37.832 A 0.036 0.036 0 0 1 84.558 37.806 A 26.807 26.807 0 0 0 84.953 37.243 A 36.968 36.968 0 0 0 85.558 36.256 A 131.825 131.825 0 0 0 86.522 34.642 A 55.155 55.155 0 0 0 88.008 31.706 Q 88.558 30.656 89.183 29.531 Q 89.808 28.406 90.658 27.631 Q 91.508 26.856 92.608 26.856 Q 94.458 26.856 94.458 28.306 Q 94.458 29.256 93.858 30.856 Q 93.258 32.456 92.258 34.906 Q 91.358 37.006 90.933 38.431 Q 90.508 39.856 90.508 40.656 Q 90.508 41.606 91.158 41.606 A 4.366 4.366 0 0 0 93.312 40.386 A 17.572 17.572 0 0 0 93.408 40.306 Q 94.758 39.106 96.008 37.331 Q 97.258 35.556 98.708 32.506 Q 99.108 31.706 99.533 30.481 Q 99.958 29.256 100.283 28.306 L 100.608 27.356 Q 101.458 27.156 102.508 26.831 Q 103.558 26.506 104.358 26.156 Q 103.858 26.656 102.933 28.406 Q 102.008 30.156 101.033 32.381 Q 100.058 34.606 99.358 36.706 Q 98.508 39.106 98.508 40.556 Q 98.508 41.756 99.258 41.756 Q 99.608 41.756 100.133 41.456 Q 100.658 41.156 101.408 40.506 Q 102.058 39.956 102.633 39.206 A 36.98 36.98 0 0 0 103.307 38.298 A 4.502 4.502 0 0 1 103.908 36.631 A 2.661 2.661 0 0 1 105.184 35.367 A 37.291 37.291 0 0 0 105.333 35.106 Q 106.158 33.656 107.158 31.706 A 0.294 0.294 0 0 1 107.235 31.602 A 59.582 59.582 0 0 1 109.008 28.331 Q 109.958 26.706 111.083 25.706 Q 112.208 24.706 113.458 24.706 Q 114.058 24.706 114.708 24.956 Q 115.358 25.256 115.358 25.556 Q 115.358 25.756 115.158 25.856 A 0.637 0.637 0 0 1 114.869 25.923 A 0.821 0.821 0 0 1 114.708 25.906 Q 113.808 25.656 113.058 26.406 Q 112.308 27.156 112.308 28.456 Q 112.308 28.656 112.333 28.881 Q 112.358 29.106 112.408 29.356 Q 112.708 30.556 113.033 32.106 Q 113.358 33.656 113.358 35.256 Q 113.358 35.856 113.308 36.456 Q 113.258 37.056 113.058 37.606 Q 112.408 39.456 111.283 40.531 Q 110.158 41.606 108.558 42.106 A 8.94 8.94 0 0 0 108.93 42.114 A 10.594 10.594 0 0 0 111.083 41.881 Q 112.408 41.606 113.358 41.056 Q 115.008 40.106 116.283 38.456 Q 117.558 36.806 118.558 34.981 Q 119.558 33.156 120.358 31.656 Q 120.408 31.456 120.658 31.456 Q 120.808 31.456 120.908 31.581 A 0.207 0.207 0 0 1 120.958 31.712 A 0.261 0.261 0 0 1 120.908 31.856 Q 119.908 33.706 118.858 35.581 Q 117.808 37.456 116.508 39.031 Q 115.208 40.606 113.408 41.606 Q 111.458 42.706 108.808 42.706 A 7.189 7.189 0 0 1 104.758 41.826 A 2.627 2.627 0 0 1 104.433 41.556 A 3.503 3.503 0 0 1 103.28 39.338 A 27.338 27.338 0 0 1 102.908 39.831 Q 100.858 42.456 98.458 42.456 Q 97.508 42.456 97.083 41.806 Q 96.658 41.156 96.658 40.056 Q 96.658 39.206 96.858 38.156 Q 97.058 37.106 97.408 36.006 A 22.14 22.14 0 0 1 93.911 40.78 A 10.826 10.826 0 0 1 93.858 40.831 Q 92.158 42.456 90.108 42.456 Q 88.158 42.456 88.158 40.356 Q 88.158 38.606 89.708 35.256 Q 90.158 34.356 90.733 33.106 Q 91.308 31.856 91.733 30.681 Q 92.158 29.506 92.158 28.756 Q 92.158 28.056 91.658 28.056 A 1.626 1.626 0 0 0 90.458 28.806 Q 89.858 29.556 89.383 30.481 Q 88.908 31.406 88.608 31.956 A 111.649 111.649 0 0 1 88.034 33.045 A 65.573 65.573 0 0 1 85.858 36.956 Q 84.758 38.756 83.858 39.956 Q 83.208 40.856 82.333 41.581 Q 81.458 42.306 80.158 42.306 Q 79.458 42.306 78.883 41.856 Q 78.308 41.406 78.008 40.306 Q 77.708 39.306 77.633 38.081 Q 77.558 36.856 77.608 35.606 Q 77.408 35.806 76.458 36.881 Q 75.508 37.956 74.283 39.481 Q 73.058 41.006 71.958 42.581 Q 70.858 44.156 70.308 45.306 Q 69.858 46.256 69.408 46.256 A 0.202 0.202 0 0 1 69.208 46.006 Q 69.208 45.756 69.308 45.606 Q 69.908 44.106 71.083 42.406 Q 72.258 40.706 73.558 39.181 Q 74.858 37.656 75.983 36.481 Q 77.108 35.306 77.658 34.856 Q 77.808 32.656 77.808 31.456 Q 77.808 30.756 77.783 30.306 Q 77.758 29.856 77.708 29.606 Q 77.658 29.006 77.108 29.006 Q 76.808 29.006 76.458 29.206 Q 76.008 29.506 75.458 30.206 Q 74.908 30.906 74.408 31.706 A 27.326 27.326 0 0 0 74.108 32.191 A 30.98 30.98 0 0 1 70.461 38.517 A 14.871 14.871 0 0 1 69.033 40.106 Q 66.308 42.706 64.408 42.706 Z M 36.008 29.656 L 37.108 27.656 A 114.081 114.081 0 0 1 43.371 17.404 A 71.424 71.424 0 0 1 45.433 14.581 A 30.869 30.869 0 0 1 50.742 9.016 A 14.188 14.188 0 0 1 53.008 7.556 Q 48.558 7.906 44.058 9.006 Q 39.558 10.106 35.408 11.956 Q 31.258 13.806 27.758 16.506 Q 24.258 19.206 21.733 22.781 Q 19.208 26.356 18.008 30.906 Q 17.258 33.806 17.258 36.656 Q 17.258 40.656 18.758 43.956 Q 20.258 47.256 23.108 49.156 Q 25.758 46.456 28.008 43.181 Q 30.258 39.906 32.158 36.556 Q 34.058 33.206 35.658 30.306 Q 33.858 29.406 31.358 29.406 Q 29.708 29.406 28.133 30.406 Q 26.558 31.406 25.558 33.006 Q 24.558 34.606 24.558 36.506 Q 24.558 37.456 24.958 38.456 Q 25.358 39.456 25.983 40.156 Q 26.608 40.856 27.308 40.856 Q 27.758 40.856 27.758 41.256 Q 27.758 41.606 27.358 41.606 Q 26.308 41.606 25.508 40.731 Q 24.708 39.856 24.258 38.656 Q 23.808 37.456 23.808 36.506 Q 23.808 34.406 24.908 32.631 Q 26.008 30.856 27.758 29.781 Q 29.508 28.706 31.358 28.706 Q 32.658 28.706 33.833 28.956 Q 35.008 29.206 36.008 29.656 Z M 30.308 51.206 Q 34.058 51.206 36.533 49.581 Q 39.008 47.956 40.233 45.406 Q 41.458 42.856 41.458 40.056 Q 41.458 37.906 40.733 35.881 Q 40.008 33.856 38.558 32.306 Q 36.108 37.456 32.783 42.156 Q 29.458 46.856 25.208 50.256 Q 26.358 50.706 27.633 50.956 Q 28.908 51.206 30.308 51.206 Z M 107.508 32.406 L 106.008 35.106 Q 106.158 35.056 106.458 35.056 Q 107.258 35.056 107.483 35.506 A 1.21 1.21 0 0 1 107.638 36.009 A 0.325 0.325 0 0 1 107.608 36.156 Q 107.458 36.106 107.333 36.081 Q 107.208 36.056 107.108 36.056 Q 106.258 36.056 105.633 36.756 Q 105.008 37.456 104.758 38.306 Q 104.658 38.656 104.608 38.981 Q 104.558 39.306 104.558 39.556 Q 104.558 40.756 105.208 41.306 Q 105.858 41.856 106.758 41.856 Q 107.758 41.856 108.808 41.206 Q 109.858 40.556 110.308 39.306 Q 110.858 37.756 110.983 35.831 Q 111.108 33.906 111.108 32.206 Q 111.108 30.506 111.158 29.606 Q 111.258 28.206 111.908 26.981 Q 112.558 25.756 114.108 25.506 Q 113.758 25.306 113.408 25.306 Q 112.558 25.306 111.658 26.056 Q 110.758 26.806 110.308 27.406 Q 109.608 28.356 108.958 29.656 Q 108.308 30.956 107.508 32.406 Z M 64.508 35.856 Q 65.608 35.856 66.658 35.031 Q 67.708 34.206 68.558 32.931 Q 69.408 31.656 69.908 30.356 Q 70.108 29.806 70.108 29.106 Q 70.108 28.456 69.883 27.981 Q 69.658 27.506 69.108 27.506 Q 68.208 27.506 67.158 28.631 Q 66.108 29.756 65.208 31.281 Q 64.308 32.806 63.858 34.056 Q 63.708 34.406 63.583 34.781 Q 63.458 35.156 63.358 35.556 Q 63.958 35.856 64.508 35.856 Z"/></g></svg>